<svg width="20" height="20" viewBox="0 0 20 20" fill="none" xmlns="http://www.w3.org/2000/svg">
<path d="M1.66667 10C1.66667 6.07163 1.66667 4.10745 2.88706 2.88706C4.10745 1.66667 6.07163 1.66667 10 1.66667C13.9283 1.66667 15.8926 1.66667 17.1129 2.88706C18.3333 4.10745 18.3333 6.07163 18.3333 10C18.3333 13.9283 18.3333 15.8926 17.1129 17.1129C15.8926 18.3333 13.9283 18.3333 10 18.3333C6.07163 18.3333 4.10745 18.3333 2.88706 17.1129C1.66667 15.8926 1.66667 13.9283 1.66667 10Z" stroke="#565656" stroke-width="1.5"/>
<path d="M12.5 10H10M10 10H7.5M10 10V7.5M10 10V12.5" stroke="#565656" stroke-width="1.5" stroke-linecap="round"/>
</svg>
