<svg width="20" height="20" viewBox="0 0 20 20" fill="none" xmlns="http://www.w3.org/2000/svg">
<path d="M11.4434 18.1414L11.8952 17.3783L10.8194 16.7415L10.3677 17.5048L11.4434 18.1414ZM8.10483 17.3783L8.55659 18.1414L9.63225 17.5048L9.1805 16.7415L8.10483 17.3783ZM10.3677 17.5048C10.2071 17.7761 9.79292 17.7761 9.63225 17.5048L8.55659 18.1414C9.20125 19.2306 10.7988 19.2306 11.4434 18.1414L10.3677 17.5048ZM8.75 2.29167H11.25V1.04167H8.75V2.29167ZM17.7083 8.75001V9.58334H18.9583V8.75001H17.7083ZM2.29167 9.58334V8.75001H1.04167V9.58334H2.29167ZM1.04167 9.58334C1.04167 10.5455 1.04133 11.2984 1.08276 11.9057C1.12459 12.5186 1.21103 13.0287 1.40641 13.5003L2.56126 13.022C2.43948 12.728 2.36735 12.3698 2.32987 11.8206C2.29201 11.2658 2.29167 10.5626 2.29167 9.58334H1.04167ZM6.50209 15.2013C5.45589 15.1833 4.9077 15.1168 4.478 14.9388L3.99965 16.0936C4.67046 16.3714 5.43449 16.4331 6.48056 16.4511L6.50209 15.2013ZM1.40641 13.5003C1.89274 14.6744 2.82556 15.6073 3.99965 16.0936L4.478 14.9388C3.61019 14.5793 2.92072 13.8898 2.56126 13.022L1.40641 13.5003ZM17.7083 9.58334C17.7083 10.5626 17.708 11.2658 17.6702 11.8206C17.6327 12.3698 17.5605 12.728 17.4388 13.022L18.5936 13.5003C18.789 13.0287 18.8754 12.5186 18.9173 11.9057C18.9587 11.2984 18.9583 10.5455 18.9583 9.58334H17.7083ZM13.5194 16.4511C14.5655 16.4331 15.3296 16.3714 16.0003 16.0936L15.522 14.9388C15.0923 15.1168 14.5441 15.1833 13.4979 15.2013L13.5194 16.4511ZM17.4388 13.022C17.0793 13.8898 16.3898 14.5793 15.522 14.9388L16.0003 16.0936C17.1744 15.6073 18.1073 14.6744 18.5936 13.5003L17.4388 13.022ZM11.25 2.29167C12.626 2.29167 13.6142 2.29233 14.3849 2.36561C15.1464 2.43801 15.6309 2.57686 16.0172 2.81357L16.6703 1.74777C16.0546 1.37048 15.3562 1.20233 14.5033 1.12123C13.6596 1.04101 12.6018 1.04167 11.25 1.04167V2.29167ZM18.9583 8.75001C18.9583 7.39818 18.959 6.34042 18.8788 5.49676C18.7977 4.64381 18.6295 3.94538 18.2523 3.3297L17.1864 3.98282C17.4232 4.3691 17.562 4.85362 17.6344 5.61508C17.7077 6.38584 17.7083 7.37397 17.7083 8.75001H18.9583ZM16.0172 2.81357C16.4938 3.10561 16.8944 3.50627 17.1864 3.98282L18.2523 3.3297C17.8572 2.68496 17.3151 2.14287 16.6703 1.74777L16.0172 2.81357ZM8.75 1.04167C7.39818 1.04167 6.34042 1.04101 5.49676 1.12123C4.6438 1.20233 3.94538 1.37048 3.3297 1.74777L3.98282 2.81357C4.3691 2.57686 4.85362 2.43801 5.61508 2.36561C6.38584 2.29233 7.37397 2.29167 8.75 2.29167V1.04167ZM2.29167 8.75001C2.29167 7.37397 2.29233 6.38584 2.36561 5.61508C2.43801 4.85362 2.57686 4.3691 2.81357 3.98282L1.74777 3.3297C1.37048 3.94538 1.20233 4.64381 1.12123 5.49676C1.04101 6.34042 1.04167 7.39818 1.04167 8.75001H2.29167ZM3.3297 1.74777C2.68496 2.14287 2.14287 2.68496 1.74777 3.3297L2.81357 3.98282C3.10561 3.50627 3.50627 3.10561 3.98282 2.81357L3.3297 1.74777ZM9.1805 16.7415C9.01134 16.4557 8.86284 16.2034 8.71842 16.0053C8.56626 15.7966 8.39184 15.6087 8.14989 15.4679L7.52144 16.5485C7.56095 16.5714 7.61477 16.6133 7.70821 16.7415C7.80936 16.8803 7.92363 17.0721 8.10483 17.3783L9.1805 16.7415ZM6.48056 16.4511C6.84646 16.4574 7.07823 16.4621 7.25491 16.4816C7.42 16.4999 7.48399 16.5267 7.52144 16.5485L8.14989 15.4679C7.90592 15.326 7.65205 15.2679 7.39248 15.2392C7.1445 15.2118 6.8448 15.2073 6.50209 15.2013L6.48056 16.4511ZM11.8952 17.3783C12.0763 17.0721 12.1906 16.8803 12.2918 16.7415C12.3852 16.6133 12.439 16.5714 12.4785 16.5485L11.8501 15.4679C11.6082 15.6087 11.4337 15.7966 11.2816 16.0053C11.1372 16.2034 10.9887 16.4557 10.8194 16.7415L11.8952 17.3783ZM13.4979 15.2013C13.1552 15.2073 12.8555 15.2118 12.6075 15.2392C12.3479 15.2679 12.0941 15.326 11.8501 15.4679L12.4785 16.5485C12.516 16.5267 12.58 16.4999 12.7451 16.4816C12.9218 16.4621 13.1535 16.4574 13.5194 16.4511L13.4979 15.2013Z" fill="#565656"/>
<path d="M6.66667 7.5H13.3333" stroke="#565656" stroke-width="1.5" stroke-linecap="round"/>
<path d="M6.66667 10.4167H11.25" stroke="#565656" stroke-width="1.5" stroke-linecap="round"/>
</svg>
