<svg width="20" height="20" viewBox="0 0 20 20" fill="none" xmlns="http://www.w3.org/2000/svg">
<path d="M14.1667 7.50162C15.9792 7.51171 16.9608 7.59208 17.6011 8.23241C18.3333 8.96466 18.3333 10.1432 18.3333 12.5002V13.3335C18.3333 15.6905 18.3333 16.8691 17.6011 17.6012C16.8688 18.3335 15.6903 18.3335 13.3333 18.3335H6.66667C4.30965 18.3335 3.13114 18.3335 2.39891 17.6012C1.66667 16.8691 1.66667 15.6905 1.66667 13.3335V12.5002C1.66667 10.1432 1.66667 8.96466 2.39891 8.2324C3.03922 7.59208 4.02081 7.51171 5.83334 7.50162" stroke="#565656" stroke-width="1.5" stroke-linecap="round"/>
<path d="M10 1.66667V12.5M10 12.5L7.5 9.58334M10 12.5L12.5 9.58334" stroke="#565656" stroke-width="1.5" stroke-linecap="round" stroke-linejoin="round"/>
</svg>
