<svg width="20" height="20" viewBox="0 0 20 20" fill="none" xmlns="http://www.w3.org/2000/svg">
<path d="M1.66669 10C1.66669 6.07165 1.66669 4.10746 2.88708 2.88708C4.10746 1.66669 6.07165 1.66669 10 1.66669C13.9284 1.66669 15.8926 1.66669 17.1129 2.88708C18.3334 4.10746 18.3334 6.07165 18.3334 10C18.3334 13.9284 18.3334 15.8926 17.1129 17.1129C15.8926 18.3334 13.9284 18.3334 10 18.3334C6.07165 18.3334 4.10746 18.3334 2.88708 17.1129C1.66669 15.8926 1.66669 13.9284 1.66669 10Z" stroke="#565656" stroke-width="1.5"/>
<path d="M12.0833 7.9167L7.91664 12.0834M7.91663 7.91669L12.0833 12.0834" stroke="#565656" stroke-width="1.5" stroke-linecap="round"/>
</svg>
