<svg width="20" height="20" viewBox="0 0 20 20" fill="none" xmlns="http://www.w3.org/2000/svg">
<path d="M18.3333 9.99999C18.3333 6.07161 18.3333 4.10743 17.113 2.88705C15.8926 1.66666 13.9284 1.66666 10 1.66666C6.07168 1.66666 4.10743 1.66666 2.8871 2.88705C1.66668 4.10743 1.66668 6.07161 1.66668 9.99999C1.66668 13.9283 1.66668 15.8926 2.8871 17.1129C4.10743 18.3333 6.07168 18.3333 10 18.3333C13.9284 18.3333 15.8926 18.3333 17.113 17.1129C18.3333 15.8926 18.3333 13.9283 18.3333 9.99999Z" stroke="#565656" stroke-width="1.5"/>
<path d="M7.33215 8.01615L7.66044 7.68013C9.11069 6.19547 11.462 6.19547 12.9123 7.68013C14.3626 9.16477 14.3626 11.5719 12.9123 13.0565C11.462 14.5412 9.11069 14.5412 7.66044 13.0565C6.81707 12.1932 6.46412 11.0178 6.6016 9.89338M7.33215 8.01615H9.30164M7.33215 8.01615V6" stroke="#565656" stroke-width="1.5" stroke-linecap="round" stroke-linejoin="round"/>
</svg>
