<svg width="20" height="20" viewBox="0 0 20 20" fill="none" xmlns="http://www.w3.org/2000/svg">
<path d="M1.66667 9.99999C1.66667 6.07161 1.66667 4.10743 2.88706 2.88705C4.10745 1.66666 6.07163 1.66666 10 1.66666C13.9283 1.66666 15.8926 1.66666 17.1129 2.88705C18.3333 4.10743 18.3333 6.07161 18.3333 9.99999C18.3333 13.9283 18.3333 15.8926 17.1129 17.1129C15.8926 18.3333 13.9283 18.3333 10 18.3333C6.07163 18.3333 4.10745 18.3333 2.88706 17.1129C1.66667 15.8926 1.66667 13.9283 1.66667 9.99999Z" stroke="#565656" stroke-width="1.5"/>
<path d="M12.6679 8.01615L12.3396 7.68013C10.8893 6.19547 8.53798 6.19547 7.08771 7.68013C5.63743 9.16477 5.63743 11.5719 7.08771 13.0565C8.53798 14.5412 10.8893 14.5412 12.3396 13.0565C13.1829 12.1932 13.5359 11.0178 13.3984 9.89338M12.6679 8.01615H10.6984M12.6679 8.01615V6" stroke="#565656" stroke-width="1.5" stroke-linecap="round" stroke-linejoin="round"/>
</svg>
